<svg width="36" height="36" viewBox="0 0 36 36" fill="none" xmlns="http://www.w3.org/2000/svg">
<g filter="url(#filter0_d_463_45)">
<circle cx="18" cy="17" r="16" fill="white"/>
</g>
<path d="M27.8866 25.783C26.4236 23.1528 24.169 21.2668 21.5379 20.3727C22.8394 19.567 23.8506 18.3393 24.4161 16.8782C24.9817 15.417 25.0704 13.8032 24.6686 12.2845C24.2668 10.7659 23.3968 9.42637 22.1921 8.4717C20.9874 7.51703 19.5146 7 18 7C16.4854 7 15.0126 7.51703 13.8079 8.4717C12.6032 9.42637 11.7332 10.7659 11.3314 12.2845C10.9296 13.8032 11.0183 15.417 11.5839 16.8782C12.1494 18.3393 13.1606 19.567 14.4621 20.3727C11.831 21.2658 9.5764 23.1518 8.11339 25.783C8.05974 25.874 8.02415 25.9752 8.00873 26.0807C7.99331 26.1862 7.99836 26.2939 8.02359 26.3973C8.04883 26.5008 8.09373 26.5979 8.15565 26.683C8.21757 26.7681 8.29525 26.8395 8.38411 26.8929C8.47297 26.9462 8.57122 26.9806 8.67305 26.9938C8.77487 27.0071 8.87822 26.999 8.977 26.97C9.07577 26.9411 9.16797 26.8918 9.24815 26.8252C9.32832 26.7586 9.39486 26.676 9.44383 26.5822C11.2536 23.3296 14.4525 21.3876 18 21.3876C21.5475 21.3876 24.7464 23.3296 26.5562 26.5822C26.6051 26.676 26.6717 26.7586 26.7519 26.8252C26.832 26.8918 26.9242 26.9411 27.023 26.97C27.1218 26.999 27.2251 27.0071 27.327 26.9938C27.4288 26.9806 27.527 26.9462 27.6159 26.8929C27.7048 26.8395 27.7824 26.7681 27.8444 26.683C27.9063 26.5979 27.9512 26.5008 27.9764 26.3973C28.0016 26.2939 28.0067 26.1862 27.9913 26.0807C27.9758 25.9752 27.9403 25.874 27.8866 25.783ZM12.6206 14.1952C12.6206 13.0888 12.9361 12.0072 13.5272 11.0872C14.1183 10.1673 14.9584 9.45028 15.9414 9.02687C16.9243 8.60346 18.006 8.49268 19.0495 8.70853C20.093 8.92438 21.0515 9.45717 21.8038 10.2395C22.5562 11.0219 23.0685 12.0187 23.2761 13.1038C23.4836 14.189 23.3771 15.3138 22.9699 16.336C22.5628 17.3582 21.8733 18.2318 20.9886 18.8465C20.104 19.4612 19.0639 19.7893 18 19.7893C16.5738 19.7877 15.2064 19.1978 14.1979 18.1491C13.1894 17.1003 12.6221 15.6784 12.6206 14.1952Z" fill="#439CEF"/>
<defs>
<filter id="filter0_d_463_45" x="0" y="0" width="36" height="36" filterUnits="userSpaceOnUse" color-interpolation-filters="sRGB">
<feFlood flood-opacity="0" result="BackgroundImageFix"/>
<feColorMatrix in="SourceAlpha" type="matrix" values="0 0 0 0 0 0 0 0 0 0 0 0 0 0 0 0 0 0 127 0" result="hardAlpha"/>
<feOffset dy="1"/>
<feGaussianBlur stdDeviation="1"/>
<feComposite in2="hardAlpha" operator="out"/>
<feColorMatrix type="matrix" values="0 0 0 0 0 0 0 0 0 0 0 0 0 0 0 0 0 0 0.25 0"/>
<feBlend mode="normal" in2="BackgroundImageFix" result="effect1_dropShadow_463_45"/>
<feBlend mode="normal" in="SourceGraphic" in2="effect1_dropShadow_463_45" result="shape"/>
</filter>
</defs>
</svg>
