<svg width="36" height="36" viewBox="0 0 36 36" fill="none" xmlns="http://www.w3.org/2000/svg">
<g filter="url(#filter0_d_463_44)">
<circle cx="18" cy="17" r="16" fill="white"/>
</g>
<path d="M15.3969 21.7937C13.3295 21.7937 11.5801 21.0776 10.1485 19.6452C8.71693 18.2129 8.00076 16.4634 8 14.3969C8 12.3295 8.71617 10.5801 10.1485 9.14851C11.5808 7.71693 13.3303 7.00076 15.3969 7C17.4642 7 19.2137 7.71617 20.6452 9.14851C22.0768 10.5808 22.793 12.3303 22.7937 14.3969C22.7937 15.2314 22.661 16.0185 22.3954 16.7582C22.1299 17.4979 21.7696 18.1522 21.3144 18.7212L27.6871 25.0939C27.8957 25.3025 28 25.568 28 25.8905C28 26.2129 27.8957 26.4784 27.6871 26.6871C27.4784 26.8957 27.2129 27 26.8905 27C26.568 27 26.3025 26.8957 26.0939 26.6871L19.7212 20.3144C19.1522 20.7696 18.4979 21.1299 17.7582 21.3954C17.0185 21.661 16.2314 21.7937 15.3969 21.7937ZM15.3969 19.5178C16.8193 19.5178 18.0286 19.0197 19.0247 18.0236C20.0209 17.0275 20.5185 15.8186 20.5178 14.3969C20.5178 12.9744 20.0197 11.7651 19.0236 10.769C18.0275 9.77288 16.8186 9.2752 15.3969 9.27596C13.9744 9.27596 12.7651 9.77402 11.769 10.7701C10.7729 11.7662 10.2752 12.9752 10.276 14.3969C10.276 15.8193 10.774 17.0286 11.7701 18.0247C12.7662 19.0209 13.9752 19.5185 15.3969 19.5178Z" fill="#439CEF"/>
<defs>
<filter id="filter0_d_463_44" x="0" y="0" width="36" height="36" filterUnits="userSpaceOnUse" color-interpolation-filters="sRGB">
<feFlood flood-opacity="0" result="BackgroundImageFix"/>
<feColorMatrix in="SourceAlpha" type="matrix" values="0 0 0 0 0 0 0 0 0 0 0 0 0 0 0 0 0 0 127 0" result="hardAlpha"/>
<feOffset dy="1"/>
<feGaussianBlur stdDeviation="1"/>
<feComposite in2="hardAlpha" operator="out"/>
<feColorMatrix type="matrix" values="0 0 0 0 0 0 0 0 0 0 0 0 0 0 0 0 0 0 0.25 0"/>
<feBlend mode="normal" in2="BackgroundImageFix" result="effect1_dropShadow_463_44"/>
<feBlend mode="normal" in="SourceGraphic" in2="effect1_dropShadow_463_44" result="shape"/>
</filter>
</defs>
</svg>
