<svg width="12" height="17" viewBox="0 0 12 17" fill="none" xmlns="http://www.w3.org/2000/svg">
<path id="bag-icon" d="M10.5 3.7H9C9 1.932 7.6575 0.5 6 0.5C4.3425 0.5 3 1.932 3 3.7H1.5C0.675 3.7 0 4.42 0 5.3V14.9C0 15.78 0.675 16.5 1.5 16.5H10.5C11.325 16.5 12 15.78 12 14.9V5.3C12 4.42 11.325 3.7 10.5 3.7ZM6 2.1C6.825 2.1 7.5 2.82 7.5 3.7H4.5C4.5 2.82 5.175 2.1 6 2.1ZM10.5 14.9H1.5V5.3H3V6.9C3 7.34 3.3375 7.7 3.75 7.7C4.1625 7.7 4.5 7.34 4.5 6.9V5.3H7.5V6.9C7.5 7.34 7.8375 7.7 8.25 7.7C8.6625 7.7 9 7.34 9 6.9V5.3H10.5V14.9Z" fill="white"/>
</svg>
