<svg width="36" height="36" viewBox="0 0 36 36" fill="none" xmlns="http://www.w3.org/2000/svg">
<g filter="url(#filter0_d_463_46)">
<circle cx="18" cy="17" r="16" fill="white"/>
</g>
<path d="M24 10.4H22C22 7.969 20.21 6 18 6C15.79 6 14 7.969 14 10.4H12C10.9 10.4 10 11.39 10 12.6V25.8C10 27.01 10.9 28 12 28H24C25.1 28 26 27.01 26 25.8V12.6C26 11.39 25.1 10.4 24 10.4ZM18 8.2C19.1 8.2 20 9.19 20 10.4H16C16 9.19 16.9 8.2 18 8.2ZM24 25.8H12V12.6H14V14.8C14 15.405 14.45 15.9 15 15.9C15.55 15.9 16 15.405 16 14.8V12.6H20V14.8C20 15.405 20.45 15.9 21 15.9C21.55 15.9 22 15.405 22 14.8V12.6H24V25.8Z" fill="#439CEF"/>
<defs>
<filter id="filter0_d_463_46" x="0" y="0" width="36" height="36" filterUnits="userSpaceOnUse" color-interpolation-filters="sRGB">
<feFlood flood-opacity="0" result="BackgroundImageFix"/>
<feColorMatrix in="SourceAlpha" type="matrix" values="0 0 0 0 0 0 0 0 0 0 0 0 0 0 0 0 0 0 127 0" result="hardAlpha"/>
<feOffset dy="1"/>
<feGaussianBlur stdDeviation="1"/>
<feComposite in2="hardAlpha" operator="out"/>
<feColorMatrix type="matrix" values="0 0 0 0 0 0 0 0 0 0 0 0 0 0 0 0 0 0 0.25 0"/>
<feBlend mode="normal" in2="BackgroundImageFix" result="effect1_dropShadow_463_46"/>
<feBlend mode="normal" in="SourceGraphic" in2="effect1_dropShadow_463_46" result="shape"/>
</filter>
</defs>
</svg>
