<svg width="36" height="36" viewBox="0 0 36 36" fill="none" xmlns="http://www.w3.org/2000/svg">
<g filter="url(#filter0_d_463_46)">
<circle cx="18" cy="17" r="16" fill="white"/>
</g>
<path d="M14.0056 27C13.455 27 12.9836 26.804 12.5912 26.412C12.1989 26.02 12.003 25.5493 12.0037 25C12.0037 24.45 12.1999 23.979 12.5922 23.587C12.9846 23.195 13.4557 22.9993 14.0056 23C14.5561 23 15.0275 23.196 15.4199 23.588C15.8122 23.98 16.0081 24.4507 16.0074 25C16.0074 25.55 15.8112 26.021 15.4189 26.413C15.0265 26.805 14.5554 27.0007 14.0056 27ZM24.0148 27C23.4643 27 22.9929 26.804 22.6005 26.412C22.2081 26.02 22.0123 25.5493 22.0129 25C22.0129 24.45 22.2091 23.979 22.6015 23.587C22.9939 23.195 23.465 22.9993 24.0148 23C24.5653 23 25.0367 23.196 25.4291 23.588C25.8215 23.98 26.0173 24.4507 26.0166 25C26.0166 25.55 25.8205 26.021 25.4281 26.413C25.0357 26.805 24.5646 27.0007 24.0148 27ZM13.1548 11L15.557 16H22.5635L25.316 11H13.1548ZM12.2039 9H26.9675C27.3512 9 27.6431 9.171 27.8433 9.513C28.0435 9.855 28.0519 10.2007 27.8684 10.55L24.3151 16.95C24.1316 17.2833 23.8853 17.5417 23.5764 17.725C23.2674 17.9083 22.9298 18 22.5635 18H15.1066L14.0056 20H25.0157C25.2993 20 25.5372 20.096 25.7294 20.288C25.9216 20.48 26.0173 20.7173 26.0166 21C26.0166 21.2833 25.9206 21.521 25.7284 21.713C25.5362 21.905 25.2987 22.0007 25.0157 22H14.0056C13.2549 22 12.6877 21.6707 12.304 21.012C11.9203 20.3533 11.9036 19.6993 12.2539 19.05L13.6052 16.6L10.0019 9H9.00093C8.71733 9 8.47945 8.904 8.28727 8.712C8.09509 8.52 7.99934 8.28267 8 8C8 7.71667 8.09609 7.479 8.28827 7.287C8.48045 7.095 8.718 6.99934 9.00093 7H10.6274C10.8109 7 10.9861 7.05 11.1529 7.15C11.3197 7.25 11.4449 7.39167 11.5283 7.575L12.2039 9Z" fill="#439CEF"/>
<defs>
<filter id="filter0_d_463_46" x="0" y="0" width="36" height="36" filterUnits="userSpaceOnUse" color-interpolation-filters="sRGB">
<feFlood flood-opacity="0" result="BackgroundImageFix"/>
<feColorMatrix in="SourceAlpha" type="matrix" values="0 0 0 0 0 0 0 0 0 0 0 0 0 0 0 0 0 0 127 0" result="hardAlpha"/>
<feOffset dy="1"/>
<feGaussianBlur stdDeviation="1"/>
<feComposite in2="hardAlpha" operator="out"/>
<feColorMatrix type="matrix" values="0 0 0 0 0 0 0 0 0 0 0 0 0 0 0 0 0 0 0.25 0"/>
<feBlend mode="normal" in2="BackgroundImageFix" result="effect1_dropShadow_463_46"/>
<feBlend mode="normal" in="SourceGraphic" in2="effect1_dropShadow_463_46" result="shape"/>
</filter>
</defs>
</svg>
