<svg width="28" height="21" viewBox="0 0 28 21" fill="none" xmlns="http://www.w3.org/2000/svg">
<g id="debit-icon">
<path id="debit-icon_2" d="M26.9988 5V17C26.9988 17.55 26.7444 18.021 26.2357 18.413C25.7269 18.805 25.1146 19.0007 24.3988 19H3.59878C2.88378 19 2.27191 18.8043 1.76318 18.413C1.25445 18.0217 0.999646 17.5507 0.998779 17V5C0.998779 4.45 1.25358 3.97933 1.76318 3.588C2.27278 3.19667 2.88465 3.00067 3.59878 3H24.3988C25.1138 3 25.7261 3.196 26.2357 3.588C26.7453 3.98 26.9996 4.45067 26.9988 5ZM3.59878 7H24.3988V5H3.59878V7ZM3.59878 11V17H24.3988V11H3.59878Z" fill="#EEEEEE"/>
</g>
</svg>
