<svg width="28" height="22" viewBox="0 0 28 22" fill="none" xmlns="http://www.w3.org/2000/svg">
<path d="M28 4.25V17.75C28 18.3687 27.7261 18.8986 27.1782 19.3396C26.6303 19.7806 25.9709 20.0007 25.2 20H2.8C2.03 20 1.37107 19.7799 0.8232 19.3396C0.275333 18.8994 0.000933333 18.3695 0 17.75V4.25C0 3.63125 0.2744 3.10175 0.8232 2.6615C1.372 2.22125 2.03093 2.00075 2.8 2H25.2C25.97 2 26.6294 2.2205 27.1782 2.6615C27.727 3.1025 28.0009 3.632 28 4.25ZM2.8 6.5H25.2V4.25H2.8V6.5ZM2.8 11V17.75H25.2V11H2.8Z" fill="black"/>
</svg>
