<svg width="23" height="23" viewBox="0 0 23 23" fill="none" xmlns="http://www.w3.org/2000/svg">
<path d="M2.3 20.7H4.6V9.2C4.6 8.895 4.72116 8.60249 4.93683 8.38683C5.15249 8.17116 5.445 8.05 5.75 8.05H19.55V5.75C19.55 5.445 19.4288 5.15249 19.2132 4.93683C18.9975 4.72116 18.705 4.6 18.4 4.6H14.8913C14.6016 2.0194 12.4315 0 9.775 0C7.1185 0 4.94845 2.0194 4.65865 4.6H1.15C0.845001 4.6 0.552494 4.72116 0.336827 4.93683C0.12116 5.15249 0 5.445 0 5.75V18.4C0 19.01 0.242321 19.595 0.673654 20.0263C1.10499 20.4577 1.69 20.7 2.3 20.7ZM9.775 2.3C11.163 2.3 12.3257 3.289 12.5925 4.6H6.9575C7.2243 3.289 8.38695 2.3 9.775 2.3Z" fill="#439CEF"/>
<path d="M21.85 10.35H8.05002C7.74503 10.35 7.45252 10.4712 7.23685 10.6868C7.02119 10.9025 6.90002 11.195 6.90002 11.5V20.7C6.90002 21.31 7.14235 21.895 7.57368 22.3264C8.00501 22.7577 8.59003 23 9.20002 23H20.7C21.31 23 21.895 22.7577 22.3264 22.3264C22.7577 21.895 23 21.31 23 20.7V11.5C23 11.195 22.8789 10.9025 22.6632 10.6868C22.4475 10.4712 22.155 10.35 21.85 10.35ZM14.95 18.4C11.7795 18.4 9.20002 15.8206 9.20002 12.65H11.5C11.5 14.5521 13.0479 16.1 14.95 16.1C16.8521 16.1 18.4 14.5521 18.4 12.65H20.7C20.7 15.8206 18.1206 18.4 14.95 18.4Z" fill="#439CEF"/>
</svg>
