<svg width="15" height="14" viewBox="0 0 15 14" fill="none" xmlns="http://www.w3.org/2000/svg">
<path d="M7.5 14C7.325 14 7.14675 13.967 6.96525 13.901C6.78375 13.835 6.6245 13.7294 6.4875 13.5842L5.19375 12.3366C3.86875 11.0561 2.67175 9.78535 1.60275 8.52436C0.53375 7.26337 -0.000499649 5.87406 3.50631e-07 4.35644C3.50631e-07 3.11551 0.39375 2.07921 1.18125 1.24753C1.96875 0.415843 2.95 1.4044e-06 4.125 1.4044e-06C4.7875 1.4044e-06 5.4125 0.148384 6 0.44515C6.5875 0.741915 7.0875 1.14799 7.5 1.66337C7.9125 1.14852 8.4125 0.742443 9 0.44515C9.5875 0.147856 10.2125 -0.000526648 10.875 1.4044e-06C12.05 1.4044e-06 13.0312 0.415843 13.8187 1.24753C14.6062 2.07921 15 3.11551 15 4.35644C15 5.87459 14.4687 7.26733 13.4062 8.53465C12.3438 9.80198 11.1375 11.0759 9.7875 12.3564L8.5125 13.5842C8.375 13.7294 8.21575 13.835 8.03475 13.901C7.85375 13.967 7.6755 14 7.5 14ZM6.7875 3.24753C6.425 2.70627 6.0375 2.29386 5.625 2.0103C5.2125 1.72673 4.7125 1.58469 4.125 1.58416C3.375 1.58416 2.75 1.84819 2.25 2.37624C1.75 2.90429 1.5 3.56436 1.5 4.35644C1.5 5.0429 1.73125 5.77241 2.19375 6.54495C2.65625 7.31749 3.2095 8.06653 3.8535 8.79208C4.497 9.51815 5.1595 10.198 5.841 10.8317C6.5225 11.4653 7.0755 11.9868 7.5 12.396C7.925 11.9868 8.47825 11.4653 9.15975 10.8317C9.84125 10.198 10.5038 9.51815 11.1473 8.79208C11.7908 8.06601 12.3438 7.31696 12.8063 6.54495C13.2688 5.77294 13.5 5.04343 13.5 4.35644C13.5 3.56436 13.25 2.90429 12.75 2.37624C12.25 1.84819 11.625 1.58416 10.875 1.58416C10.2875 1.58416 9.7875 1.72594 9.375 2.00951C8.9625 2.29307 8.575 2.70574 8.2125 3.24753C8.125 3.37954 8.01875 3.47855 7.89375 3.54456C7.76875 3.61056 7.6375 3.64357 7.5 3.64357C7.3625 3.64357 7.23125 3.61056 7.10625 3.54456C6.98125 3.47855 6.875 3.37954 6.7875 3.24753Z" fill="#8B8B8B"/>
</svg>
