<svg width="23" height="23" viewBox="0 0 23 23" fill="none" xmlns="http://www.w3.org/2000/svg">
<path d="M12.65 0.0574999V2.3805C17.1925 2.944 20.7 6.808 20.7 11.5C20.7 15.1915 18.492 18.4 15.272 19.872L12.65 17.25V23H18.4L16.997 21.597C20.5965 19.6305 23 15.824 23 11.5C23 5.543 18.4575 0.6325 12.65 0.0574999ZM10.35 0C8.1075 0.23 5.98 1.104 4.232 2.5415L5.865 4.1745C7.17036 3.16823 8.71681 2.52189 10.35 2.3V0ZM2.53 4.232C1.104 5.98 0.23 8.1075 0 10.35H2.3C2.5185 8.717 3.1625 7.1645 4.1745 5.865L2.53 4.232ZM4.6 6.9V9.2H8.05V10.35H6.9C5.635 10.35 4.6 11.385 4.6 12.65V16.1H10.35V13.8H6.9V12.65H8.05C9.3265 12.65 10.35 11.6265 10.35 10.35V9.2C10.35 8.59 10.1077 8.00499 9.67634 7.57365C9.24501 7.14232 8.66 6.9 8.05 6.9H4.6ZM11.5 6.9V12.65H14.95V16.1H17.25V12.65H18.4V10.35H17.25V6.9H14.95V10.35H13.8V6.9H11.5ZM0 12.65C0.23 14.8925 1.1155 17.02 2.553 18.768L4.186 17.135C3.17631 15.8304 2.52605 14.2841 2.3 12.65H0ZM5.8765 18.8255L4.232 20.4585C5.97929 21.8851 8.10619 22.7686 10.35 23V20.7C8.71893 20.4832 7.17494 19.8362 5.8765 18.8255Z" fill="#439CEF"/>
</svg>
