<svg width="40" height="40" viewBox="0 0 40 40" fill="none" xmlns="http://www.w3.org/2000/svg">
<circle cx="19.2308" cy="20" r="19.2308" fill="#439CEF"/>
<path d="M5.53847 6.3846L7.61539 4.61537L10.1539 2.92307V32H5.53847V6.3846Z" fill="white"/>
<rect x="9.07692" y="8.76923" width="4.61538" height="17.5385" transform="rotate(-90 9.07692 8.76923)" fill="white"/>
<path d="M19.2308 18.6154V14H37.6154L38.3077 16.3077L38.4615 18.6154H19.2308Z" fill="white"/>
<path d="M30.3077 14.2308L34.9231 14.1538L34.4615 31.9231L32.5385 34.0769L30.3077 35.7692L30.3077 14.2308Z" fill="white"/>
<path d="M7.23077 32V27.3846H37.1539L36 29.7692L34.6154 32H7.23077Z" fill="white"/>
<path d="M7.38461 4.76922L8.30769 4.15384V4.76922V30.3077H7.38461V4.76922Z" fill="#439CEF"/>
<path d="M36.2661 29.3846L36 29.9231L35.7692 30.3077H35.1982H8.30769V29.3846H36.2661Z" fill="#439CEF"/>
<path d="M32.1538 16.3077L32.6923 16.4322L33.0769 16.5401V16.8072V29.3846H32.1538V16.3077Z" fill="#439CEF"/>
<path d="M38.1538 15.8462L38.3077 16.3077L38.3394 16.7692H37.4604H20V15.8462H38.1538Z" fill="#439CEF"/>
<path d="M25.8462 6V6.92308H24.9834H7.84616V6H25.8462Z" fill="#439CEF"/>
<path d="M40 20C40 31.0457 31.0457 40 20 40C8.9543 40 0 31.0457 0 20C0 8.9543 8.9543 0 20 0C31.0457 0 40 8.9543 40 20ZM1.86116 20C1.86116 30.0178 9.98219 38.1388 20 38.1388C30.0178 38.1388 38.1388 30.0178 38.1388 20C38.1388 9.98219 30.0178 1.86116 20 1.86116C9.98219 1.86116 1.86116 9.98219 1.86116 20Z" fill="#439CEF"/>
</svg>
