<svg width="30" height="22" viewBox="0 0 30 22" fill="none" xmlns="http://www.w3.org/2000/svg">
<path d="M5.35928 21.9073V20.453C5.35928 19.8955 5.00529 19.532 4.39854 19.532C4.09522 19.532 3.76657 19.6289 3.53903 19.944C3.36215 19.6774 3.10938 19.532 2.73018 19.532C2.4773 19.532 2.22465 19.6046 2.02232 19.8713V19.5804H1.49146V21.9073H2.02232V20.6226C2.02232 20.2107 2.24987 20.0167 2.60385 20.0167C2.95761 20.0167 3.13472 20.2349 3.13472 20.6226V21.9073H3.66558V20.6226C3.66558 20.2107 3.91823 20.0167 4.24688 20.0167C4.60087 20.0167 4.77775 20.2349 4.77775 20.6226V21.9073H5.35928ZM13.221 19.5804H12.3616V18.8776H11.8308V19.5804H11.3504V20.0409H11.8306V21.1075C11.8306 21.6408 12.0582 21.9558 12.6649 21.9558C12.8925 21.9558 13.1451 21.8831 13.3222 21.7862L13.1705 21.3498C13.0188 21.4468 12.8419 21.4711 12.7155 21.4711C12.4627 21.4711 12.3616 21.3256 12.3616 21.0832V20.0409H13.221V19.5804ZM17.7208 19.5319C17.4175 19.5319 17.2153 19.6774 17.0889 19.8713V19.5804H16.558V21.9073H17.0889V20.5985C17.0889 20.2107 17.2657 19.9925 17.5944 19.9925C17.6955 19.9925 17.8219 20.0168 17.923 20.041L18.0747 19.5563C17.9736 19.532 17.8219 19.532 17.7208 19.532V19.5319ZM10.9207 19.7743C10.6678 19.6046 10.3139 19.532 9.93473 19.532C9.3281 19.532 8.92367 19.8228 8.92367 20.2833C8.92367 20.6712 9.22699 20.8893 9.75786 20.9621L10.0106 20.9863C10.2887 21.0347 10.4404 21.1075 10.4404 21.2287C10.4404 21.3983 10.2382 21.5195 9.88418 21.5195C9.53031 21.5195 9.25221 21.3983 9.07522 21.2772L8.82245 21.6649C9.10055 21.8588 9.47976 21.9558 9.85885 21.9558C10.5667 21.9558 10.9712 21.6408 10.9712 21.2044C10.9712 20.7923 10.6426 20.5742 10.1369 20.5015L9.88418 20.4772C9.65663 20.4529 9.47975 20.4046 9.47975 20.2592C9.47975 20.0895 9.65663 19.9925 9.93473 19.9925C10.2382 19.9925 10.5415 20.1136 10.6931 20.1864L10.9207 19.7743ZM25.0266 19.532C24.7232 19.532 24.521 19.6774 24.3945 19.8713V19.5804H23.8636V21.9073H24.3945V20.5985C24.3945 20.2107 24.5715 19.9925 24.9 19.9925C25.0013 19.9925 25.1277 20.0168 25.2288 20.041L25.3805 19.5563C25.2794 19.532 25.1277 19.532 25.0266 19.532ZM18.2517 20.7439C18.2517 21.4468 18.7572 21.9558 19.541 21.9558C19.8948 21.9558 20.1476 21.8831 20.4004 21.6892L20.1476 21.2772C19.9454 21.4226 19.7432 21.4952 19.5156 21.4952C19.0859 21.4952 18.7826 21.2044 18.7826 20.7439C18.7826 20.3076 19.0859 20.0167 19.5156 19.9925C19.7432 19.9925 19.9454 20.0652 20.1476 20.2107L20.4004 19.7986C20.1476 19.6046 19.8948 19.532 19.541 19.532C18.7572 19.532 18.2517 20.041 18.2517 20.7439ZM23.1559 20.7439V19.5804H22.625V19.8713C22.448 19.6532 22.1953 19.532 21.8666 19.532C21.1841 19.532 20.6532 20.041 20.6532 20.7439C20.6532 21.4468 21.1841 21.9558 21.8666 21.9558C22.2205 21.9558 22.4734 21.8346 22.625 21.6165V21.9073H23.1559V20.7439ZM21.2093 20.7439C21.2093 20.3318 21.4874 19.9925 21.9424 19.9925C22.3722 19.9925 22.6756 20.3076 22.6756 20.7439C22.6756 21.1559 22.3722 21.4952 21.9424 21.4952C21.4874 21.4709 21.2093 21.1559 21.2093 20.7439ZM14.8643 19.532C14.1564 19.532 13.6508 20.0167 13.6508 20.7439C13.6508 21.4711 14.1563 21.9558 14.8895 21.9558C15.2434 21.9558 15.5974 21.8588 15.8755 21.6408L15.6226 21.2772C15.4204 21.4226 15.1676 21.5195 14.9148 21.5195C14.5862 21.5195 14.2575 21.3741 14.1816 20.9619H15.9766V20.7682C16.0019 20.0167 15.5469 19.532 14.8643 19.532ZM14.8643 19.9682C15.1928 19.9682 15.4205 20.1622 15.4709 20.5258H14.207C14.2575 20.2107 14.4851 19.9682 14.8643 19.9682ZM28.0348 20.7439V18.6594H27.5039V19.8713C27.3269 19.6532 27.0742 19.532 26.7455 19.532C26.063 19.532 25.5321 20.041 25.5321 20.7439C25.5321 21.4468 26.063 21.9558 26.7455 21.9558C27.0995 21.9558 27.3523 21.8346 27.5039 21.6165V21.9073H28.0348V20.7439ZM26.0883 20.7439C26.0883 20.3318 26.3663 19.9925 26.8214 19.9925C27.2512 19.9925 27.5545 20.3076 27.5545 20.7439C27.5545 21.1559 27.2512 21.4952 26.8214 21.4952C26.3663 21.4709 26.0883 21.1559 26.0883 20.7439ZM8.34214 20.7439V19.5804H7.81128V19.8713C7.63428 19.6532 7.38152 19.532 7.05286 19.532C6.37034 19.532 5.83948 20.041 5.83948 20.7439C5.83948 21.4468 6.37034 21.9558 7.05286 21.9558C7.40685 21.9558 7.65962 21.8346 7.81128 21.6165V21.9073H8.34214V20.7439ZM6.37034 20.7439C6.37034 20.3318 6.64844 19.9925 7.10342 19.9925C7.53318 19.9925 7.83661 20.3076 7.83661 20.7439C7.83661 21.1559 7.53318 21.4952 7.10342 21.4952C6.64844 21.4709 6.37034 21.1559 6.37034 20.7439Z" fill="#EEEEEE"/>
<path d="M10.7438 1.91055H18.7067V15.6295H10.7438V1.91055Z" fill="#FF5F00"/>
<path d="M11.2494 8.77009C11.2494 5.9827 12.6144 3.51032 14.7125 1.91054C13.1706 0.747112 11.2242 0.04422 9.1007 0.04422C4.06992 0.04422 0 3.94656 0 8.77009C0 13.5935 4.06992 17.496 9.10058 17.496C11.224 17.496 13.1705 16.7931 14.7125 15.6295C12.6144 14.054 11.2494 11.5575 11.2494 8.77009Z" fill="#EB001B"/>
<path d="M29.4505 8.77009C29.4505 13.5935 25.3805 17.496 20.3499 17.496C18.2264 17.496 16.28 16.7931 14.7379 15.6295C16.8614 14.0299 18.2012 11.5575 18.2012 8.77009C18.2012 5.9827 16.836 3.51032 14.7379 1.91054C16.2798 0.747112 18.2264 0.04422 20.3499 0.04422C25.3805 0.04422 29.4505 3.97085 29.4505 8.77009Z" fill="#F79E1B"/>
</svg>
