<svg width="38" height="23" viewBox="0 0 38 23" fill="none" xmlns="http://www.w3.org/2000/svg">
<path d="M6.65 0C5.07656 0 3.8 0.96582 3.8 2.15625V4.3125H0.95C0.4275 4.3125 0 4.63594 0 5.03125C0 5.42656 0.4275 5.75 0.95 5.75H16.15C16.6725 5.75 17.1 6.07344 17.1 6.46875C17.1 6.86406 16.6725 7.1875 16.15 7.1875H2.85C2.3275 7.1875 1.9 7.51094 1.9 7.90625C1.9 8.30156 2.3275 8.625 2.85 8.625H14.25C14.7725 8.625 15.2 8.94844 15.2 9.34375C15.2 9.73906 14.7725 10.0625 14.25 10.0625H0.95C0.4275 10.0625 0 10.3859 0 10.7812C0 11.1766 0.4275 11.5 0.95 11.5H12.35C12.8725 11.5 13.3 11.8234 13.3 12.2188C13.3 12.6141 12.8725 12.9375 12.35 12.9375H3.8V18.6875C3.8 21.0684 6.35313 23 9.5 23C12.6469 23 15.2 21.0684 15.2 18.6875H22.8C22.8 21.0684 25.3531 23 28.5 23C31.6469 23 34.2 21.0684 34.2 18.6875H36.1C37.1509 18.6875 38 18.0451 38 17.25C38 16.4549 37.1509 15.8125 36.1 15.8125V10.66C36.1 9.89629 35.7022 9.16406 34.9897 8.625L30.4 5.15254C29.6875 4.61348 28.7197 4.3125 27.7103 4.3125H24.7V2.15625C24.7 0.96582 23.4234 0 21.85 0H6.65ZM32.3 10.66V11.5H24.7V7.1875H27.7103L32.3 10.66ZM9.5 16.5312C10.2559 16.5313 10.9808 16.7584 11.5153 17.1628C12.0497 17.5672 12.35 18.1156 12.35 18.6875C12.35 19.2594 12.0497 19.8078 11.5153 20.2122C10.9808 20.6166 10.2559 20.8437 9.5 20.8438C8.74413 20.8437 8.01922 20.6166 7.48475 20.2122C6.95027 19.8078 6.65 19.2594 6.65 18.6875C6.65 18.1156 6.95027 17.5672 7.48475 17.1628C8.01922 16.7584 8.74413 16.5313 9.5 16.5312ZM25.65 18.6875C25.65 18.1156 25.9503 17.5672 26.4847 17.1628C27.0192 16.7584 27.7441 16.5313 28.5 16.5312C29.2559 16.5313 29.9808 16.7584 30.5153 17.1628C31.0497 17.5672 31.35 18.1156 31.35 18.6875C31.35 19.2594 31.0497 19.8078 30.5153 20.2122C29.9808 20.6166 29.2559 20.8437 28.5 20.8438C27.7441 20.8437 27.0192 20.6166 26.4847 20.2122C25.9503 19.8078 25.65 19.2594 25.65 18.6875Z" fill="#439CEF"/>
</svg>
