<svg width="20" height="22" viewBox="0 0 20 22" fill="none" xmlns="http://www.w3.org/2000/svg">
<path d="M16.9267 1.70372C15.8694 0.548213 13.9581 0.0528183 11.513 0.0528183H4.41668C4.17476 0.0528269 3.94078 0.135581 3.7568 0.286203C3.57282 0.436824 3.45092 0.645433 3.41301 0.874524L0.458229 18.8428C0.399498 19.1972 0.685642 19.518 1.06019 19.518H5.44121L6.54147 12.8266L6.50733 13.0361C6.58571 12.5631 7.00761 12.2143 7.5072 12.2143H9.58905C13.6788 12.2143 16.8812 10.6215 17.8167 6.01393C17.8444 5.87766 17.8685 5.74502 17.8893 5.61544C17.7712 5.55549 17.7712 5.55549 17.8893 5.61544C18.1679 3.91245 17.8874 2.75323 16.9267 1.70372Z" fill="#27346A"/>
<path d="M8.21782 5.00197C8.33759 4.94728 8.46859 4.91895 8.60124 4.91902H14.1646C14.8234 4.91902 15.4379 4.96013 15.9994 5.04678C16.1565 5.0708 16.3129 5.09948 16.4681 5.13278C16.6882 5.17934 16.9057 5.23633 17.1199 5.30354C17.396 5.39194 17.6531 5.49489 17.8894 5.61544C18.1678 3.91179 17.8874 2.75323 16.9267 1.70372C15.8688 0.548213 13.9581 0.0528183 11.513 0.0528183H4.41607C3.9164 0.0528183 3.49132 0.40161 3.41301 0.874523L0.45823 18.8422C0.399498 19.1971 0.685643 19.5175 1.05958 19.5175H5.44121L7.72392 5.63785C7.74636 5.50143 7.80304 5.37227 7.88908 5.2615C7.97511 5.15073 8.08793 5.06167 8.21782 5.00197Z" fill="#27346A"/>
<path d="M17.8167 6.01392C16.8812 10.6208 13.6789 12.2143 9.58907 12.2143H7.50661C7.00701 12.2143 6.58504 12.5631 6.50742 13.0361L5.13861 21.3561C5.08747 21.6662 5.33757 21.9472 5.66477 21.9472H9.35786C9.56941 21.9471 9.774 21.8747 9.93484 21.7429C10.0957 21.6112 10.2022 21.4287 10.2353 21.2283L10.2712 21.0479L10.9673 16.8182L11.0121 16.5844C11.0452 16.3841 11.1517 16.2016 11.3125 16.0699C11.4733 15.9381 11.6779 15.8657 11.8895 15.8656H12.4422C16.0197 15.8656 18.821 14.472 19.6396 10.4416C19.9812 8.75733 19.8044 7.35111 18.9006 6.36337C18.6264 6.0642 18.2859 5.81712 17.8893 5.61544C17.8678 5.74567 17.8445 5.87765 17.8167 6.01392Z" fill="#2790C3"/>
<path d="M16.9103 5.24118C16.7644 5.20035 16.6172 5.16419 16.4688 5.13278C16.3135 5.10003 16.1572 5.07154 16.0001 5.04736C15.438 4.96013 14.824 4.91895 14.1646 4.91895H8.60185C8.46909 4.91866 8.338 4.94724 8.21843 5.00254C8.08839 5.06206 7.97545 5.15108 7.88937 5.26188C7.8033 5.37268 7.74669 5.50193 7.72445 5.63843L6.54208 12.8266L6.50793 13.0361C6.58571 12.5631 7.00761 12.2143 7.50728 12.2143H9.58974C13.6795 12.2143 16.8818 10.6215 17.8173 6.01392C17.8451 5.87765 17.8685 5.7456 17.89 5.61544C17.6531 5.49554 17.3967 5.39193 17.1206 5.30412C17.0509 5.28197 16.9808 5.26099 16.9104 5.24118" fill="#1F264F"/>
</svg>
