<svg width="28" height="23" viewBox="0 0 28 23" fill="none" xmlns="http://www.w3.org/2000/svg">
<path d="M16.674 1.58195L13.762 3.92683H16.8C19.7704 3.92683 22.6192 4.87247 24.7196 6.55572C26.82 8.23898 28 10.522 28 12.9024H25.2C25.2 11.1171 24.315 9.40484 22.7397 8.1424C21.1644 6.87996 19.0278 6.17073 16.8 6.17073H13.762L16.688 8.51561L14.7 10.0976L8.4 5.04878L10.374 3.46683L14.7 0L16.674 1.58195ZM0 11.7805V23H22.4V11.7805H0ZM2.8 19.1405V15.6512C3.64157 15.2595 4.34122 14.6988 4.83 14.0244H17.57C18.0588 14.6988 18.7584 15.2595 19.6 15.6512V19.1405C18.7703 19.532 18.0807 20.0885 17.598 20.7561H4.83C4.33951 20.0857 3.63996 19.5289 2.8 19.1405ZM11.2 19.6341C12.3592 19.6341 13.3 18.63 13.3 17.3902C13.3 16.1505 12.3592 15.1463 11.2 15.1463C10.0408 15.1463 9.1 16.1505 9.1 17.3902C9.1 18.63 10.0408 19.6341 11.2 19.6341Z" fill="#439CEF"/>
</svg>
