<svg width="25" height="32" viewBox="0 0 25 32" fill="none" xmlns="http://www.w3.org/2000/svg">
<path d="M2.65321 31.0473C1.8975 31.0473 1.26664 30.7817 0.760643 30.2504C0.253547 29.718 0 29.0551 0 28.2617V9.68504C0 8.89161 0.253547 8.22927 0.760643 7.69801C1.26664 7.16561 1.8975 6.89941 2.65321 6.89941H5.75V6.03698C5.75 4.36042 6.30912 2.93512 7.42736 1.76107C8.5456 0.587024 9.90314 0 11.5 0C13.0969 0 14.4544 0.587024 15.5726 1.76107C16.6909 2.93512 17.25 4.36042 17.25 6.03698V6.89941H20.3468C21.1025 6.89941 21.7334 7.16561 22.2394 7.69801C22.7465 8.22927 23 8.89161 23 9.68504V28.2617C23 29.0551 22.747 29.7175 22.241 30.2487C21.7339 30.7811 21.1025 31.0473 20.3468 31.0473H2.65321ZM7.39286 6.89941H15.6071V6.03698C15.6071 4.82269 15.2118 3.80042 14.421 2.97019C13.6302 2.13997 12.6566 1.72485 11.5 1.72485C10.3434 1.72485 9.36976 2.13997 8.579 2.97019C7.78824 3.80042 7.39286 4.82269 7.39286 6.03698V6.89941ZM16.4286 13.7988C16.6619 13.7988 16.8574 13.7166 17.0151 13.5522C17.1717 13.3866 17.25 13.1813 17.25 12.9364V8.62426H15.6071V12.9364C15.6071 13.1813 15.6855 13.3866 15.8421 13.5522C15.9998 13.7166 16.1953 13.7988 16.4286 13.7988ZM6.57143 13.7988C6.80471 13.7988 7.00022 13.7166 7.15793 13.5522C7.31455 13.3866 7.39286 13.1813 7.39286 12.9364V8.62426H5.75V12.9364C5.75 13.1813 5.82831 13.3866 5.98493 13.5522C6.14264 13.7166 6.33814 13.7988 6.57143 13.7988Z" fill="#FF0000"/>
<path d="M0.109072 8.2693L1.52329 6.89719L23.0072 27.507L23.0075 29.0072L22.5076 30.0073L21.6968 29.2205L0.109072 8.2693Z" fill="white"/>
</svg>
