<svg width="22" height="23" viewBox="0 0 22 23" fill="none" xmlns="http://www.w3.org/2000/svg">
<path fill-rule="evenodd" clip-rule="evenodd" d="M10.9438 0C8.06388 0 5.44029 0.953302 3.88781 1.73217C3.74754 1.80246 3.61684 1.87146 3.49506 1.93791C3.25406 2.06953 3.04877 2.19221 2.88555 2.30019L4.65161 4.9058L5.483 5.23741C8.73206 6.88013 13.0892 6.88013 16.3389 5.23741L17.2825 4.7467L18.9523 2.30019C18.6064 2.07404 18.2468 1.86982 17.8754 1.68872C16.3306 0.91816 13.7695 0 10.9444 0H10.9438ZM6.83656 2.94936C6.21118 2.83209 5.59351 2.67675 4.98698 2.48421C6.44127 1.83696 8.60837 1.1501 10.9438 1.1501C12.5613 1.1501 14.0908 1.47979 15.3558 1.89766C13.8734 2.10659 12.2916 2.46121 10.7844 2.8976C9.59851 3.24135 8.21244 3.20429 6.83656 2.94936ZM17.0122 6.18496L16.8553 6.26419C13.2811 8.07112 8.54015 8.07112 4.96594 6.26419L4.81738 6.18879C-0.552224 12.0933 -4.65179 23 10.9438 23C26.5394 23 22.3397 11.8894 17.0122 6.18496ZM10.2813 11.501C9.94316 11.501 9.61882 11.6356 9.37969 11.8752C9.14056 12.1149 9.00621 12.4399 9.00621 12.7788C9.00621 13.1178 9.14056 13.4428 9.37969 13.6824C9.61882 13.9221 9.94316 14.0567 10.2813 14.0567V11.501ZM11.5565 10.2231V9.58413H10.2813V10.2231C9.60497 10.2231 8.9563 10.4923 8.47803 10.9716C7.99976 11.4509 7.73107 12.101 7.73107 12.7788C7.73107 13.4567 7.99976 14.1067 8.47803 14.586C8.9563 15.0653 9.60497 15.3346 10.2813 15.3346V17.8904C9.72666 17.8904 9.25423 17.5358 9.07826 17.0387C9.05215 16.9573 9.01003 16.8821 8.9544 16.8174C8.89876 16.7526 8.83074 16.6997 8.75435 16.6618C8.67796 16.6239 8.59475 16.6017 8.50966 16.5966C8.42456 16.5914 8.33931 16.6034 8.25893 16.6319C8.17855 16.6604 8.10468 16.7047 8.04169 16.7623C7.9787 16.8198 7.92788 16.8895 7.89222 16.9671C7.85656 17.0447 7.83678 17.1286 7.83407 17.214C7.83136 17.2994 7.84577 17.3845 7.87644 17.4642C8.05231 17.9626 8.37801 18.394 8.80869 18.6992C9.23938 19.0044 9.75388 19.1683 10.2813 19.1683V19.8072H11.5565V19.1683C12.2329 19.1683 12.8815 18.899 13.3598 18.4197C13.8381 17.9404 14.1068 17.2903 14.1068 16.6125C14.1068 15.9347 13.8381 15.2846 13.3598 14.8053C12.8815 14.326 12.2329 14.0567 11.5565 14.0567V11.501C12.1112 11.501 12.5836 11.8556 12.7596 12.3527C12.7857 12.434 12.8278 12.5093 12.8834 12.574C12.9391 12.6387 13.0071 12.6916 13.0835 12.7295C13.1599 12.7675 13.2431 12.7896 13.3282 12.7948C13.4133 12.7999 13.4985 12.7879 13.5789 12.7594C13.6593 12.731 13.7332 12.6867 13.7961 12.6291C13.8591 12.5715 13.91 12.5019 13.9456 12.4243C13.9813 12.3467 14.0011 12.2627 14.0038 12.1773C14.0065 12.0919 13.9921 12.0068 13.9614 11.9271C13.7855 11.4288 13.4598 10.9973 13.0291 10.6921C12.5985 10.387 12.084 10.2231 11.5565 10.2231ZM11.5565 15.3346V17.8904C11.8947 17.8904 12.219 17.7557 12.4581 17.5161C12.6973 17.2764 12.8316 16.9514 12.8316 16.6125C12.8316 16.2736 12.6973 15.9485 12.4581 15.7089C12.219 15.4692 11.8947 15.3346 11.5565 15.3346Z" fill="#439CEF"/>
</svg>
