<svg width="60" height="22" viewBox="0 0 60 22" fill="none" xmlns="http://www.w3.org/2000/svg">
<path d="M31.0305 7.75439C30.9963 10.2619 33.4359 11.6611 35.2737 12.493C37.1618 13.3466 37.796 13.894 37.7885 14.6574C37.7745 15.8255 36.2824 16.3411 34.8863 16.3612C32.4504 16.3962 31.0341 15.7502 29.9081 15.2616L29.0306 19.0761C30.1603 19.5597 32.2521 19.9815 34.4212 20C39.513 20 42.8442 17.665 42.8623 14.0446C42.8822 9.44992 36.0213 9.1956 36.0682 7.14189C36.0844 6.51916 36.724 5.85462 38.1255 5.68566C38.8193 5.60031 40.7344 5.53498 42.9056 6.46386L43.7578 2.77319C42.5902 2.37821 41.0895 2 39.221 2C34.4285 2 31.0577 4.36682 31.0305 7.75439ZM51.9464 2.3179C51.0166 2.3179 50.2331 2.82174 49.8834 3.59493L42.6101 19.7289H47.6981L48.7106 17.1293H54.9281L55.5155 19.7289H60L56.0866 2.3179H51.9464ZM52.6582 7.02127L54.1266 13.5593H50.1052L52.6582 7.02127ZM24.8616 2.31812L20.8509 19.7287H25.6995L29.7082 2.31768H24.8616M17.689 2.31768L12.6424 14.1685L10.601 4.09225C10.3615 2.96741 9.41555 2.3179 8.36508 2.3179H0.115547L0 2.82349C1.69359 3.1649 3.61781 3.71556 4.78359 4.30476C5.49703 4.66468 5.70047 4.97932 5.93484 5.83459L9.80133 19.7289H14.925L22.7803 2.3179L17.689 2.31768Z" fill="url(#paint0_linear_793_2)"/>
<defs>
<linearGradient id="paint0_linear_793_2" x1="2758.44" y1="56.108" x2="2806.85" y2="-1792.72" gradientUnits="userSpaceOnUse">
<stop stop-color="#222357"/>
<stop offset="1" stop-color="#254AA5"/>
</linearGradient>
</defs>
</svg>
