<svg width="57" height="21" viewBox="0 0 57 21" fill="none" xmlns="http://www.w3.org/2000/svg">
<g id="visa-icon">
<path id="visa-icon_2" d="M29.0558 7.61501C29.0251 9.84388 31.2207 11.0876 32.8747 11.8271C34.574 12.5858 35.1448 13.0724 35.138 13.751C35.1254 14.7893 33.7825 15.2477 32.526 15.2655C30.3337 15.2966 29.059 14.7224 28.0457 14.2881L27.2559 17.6788C28.2726 18.1087 30.1553 18.4835 32.1075 18.5C36.6901 18.5 39.6882 16.4244 39.7044 13.2063C39.7223 9.12215 33.5476 8.89609 33.5897 7.07057C33.6043 6.51703 34.1799 5.92633 35.4414 5.77614C36.0657 5.70027 37.7893 5.64221 39.7434 6.46787L40.5104 3.18728C39.4595 2.83619 38.1089 2.5 36.4273 2.5C32.114 2.5 29.0803 4.60384 29.0558 7.61501ZM47.8801 2.78258C47.0433 2.78258 46.3382 3.23044 46.0235 3.91772L39.4774 18.259H44.0567L44.9679 15.9483H50.5637L51.0923 18.259H55.1284L51.6063 2.78258H47.8801ZM48.5207 6.96335L49.8423 12.7749H46.223L48.5207 6.96335ZM23.5038 2.78277L19.8942 18.2588H24.2579L27.8657 2.78238H23.5038M17.0484 2.78238L12.5065 13.3165L10.6693 4.35978C10.4537 3.35992 9.60235 2.78258 8.65693 2.78258H1.23235L1.12836 3.23199C2.65259 3.53547 4.38439 4.02494 5.43359 4.54868C6.07569 4.86861 6.25878 5.14828 6.46972 5.90853L9.94955 18.259H14.5609L21.6306 2.78258L17.0484 2.78238Z" fill="url(#paint0_linear_1065_18)"/>
</g>
<defs>
<linearGradient id="paint0_linear_1065_18" x1="2483.72" y1="50.596" x2="2526.22" y2="-1592.83" gradientUnits="userSpaceOnUse">
<stop stop-color="#4042AD"/>
<stop offset="1" stop-color="#254AA5"/>
</linearGradient>
</defs>
</svg>
