<svg width="150" height="40" viewBox="0 0 150 40" fill="none" xmlns="http://www.w3.org/2000/svg">
<path d="M37.3788 20C38.8265 20 40.0177 21.1785 39.8285 22.6137C39.4292 25.6426 38.3396 28.5519 36.6294 31.1114C34.4318 34.4004 31.3082 36.9638 27.6537 38.4776C23.9991 39.9913 19.9778 40.3874 16.0982 39.6157C12.2186 38.844 8.65491 36.9392 5.85786 34.1421C3.06081 31.3451 1.156 27.7814 0.384294 23.9018C-0.38741 20.0222 0.00865672 16.0009 1.52241 12.3463C3.03616 8.69181 5.59961 5.56824 8.8886 3.37061C11.4481 1.66043 14.3574 0.570766 17.3863 0.17151C18.8215 -0.0176778 20 1.17354 20 2.62118V2.62118C20 4.06881 18.8174 5.21874 17.3925 5.47453C15.4025 5.83176 13.4976 6.59587 11.8011 7.72947C9.37421 9.35106 7.48269 11.6559 6.36572 14.3525C5.24874 17.0491 4.95649 20.0164 5.52592 22.8791C6.09535 25.7418 7.50088 28.3713 9.56477 30.4352C11.6287 32.4991 14.2582 33.9047 17.1209 34.4741C19.9836 35.0435 22.9509 34.7513 25.6475 33.6343C28.3441 32.5173 30.6489 30.6258 32.2705 28.1989C33.4041 26.5024 34.1682 24.5975 34.5255 22.6075C34.7813 21.1826 35.9312 20 37.3788 20V20Z" fill="#439CEF"/>
<path d="M31.4307 20C32.8497 20 34.0239 18.8401 33.7649 17.4449C33.252 14.6819 31.9146 12.1156 29.8995 10.1005C27.274 7.475 23.713 6 20 6C16.287 6 12.726 7.475 10.1005 10.1005C8.08536 12.1156 6.74798 14.6819 6.23507 17.4449C5.97609 18.8401 7.15033 20 8.56934 20V20C9.98835 20 11.1028 18.8262 11.5086 17.4664C11.9254 16.0694 12.6845 14.7837 13.7341 13.7341C15.3959 12.0723 17.6498 11.1387 20 11.1387C22.3502 11.1387 24.6041 12.0723 26.2659 13.7341C27.3155 14.7837 28.0746 16.0694 28.4914 17.4664C28.8972 18.8262 30.0117 20 31.4307 20V20Z" fill="#439CEF"/>
<path d="M25 20C26.6569 20 28.0509 21.3885 27.4441 22.9302C27.2358 23.4592 26.9708 23.9671 26.6518 24.4446C25.7727 25.7602 24.5233 26.7855 23.0615 27.391C21.5997 27.9965 19.9911 28.155 18.4393 27.8463C16.8874 27.5376 15.462 26.7757 14.3431 25.6569C13.2243 24.538 12.4624 23.1126 12.1537 21.5607C11.845 20.0089 12.0035 18.4003 12.609 16.9385C13.2145 15.4767 14.2398 14.2273 15.5554 13.3482C16.0329 13.0292 16.5408 12.7642 17.0698 12.5559C18.6115 11.9491 20 13.3431 20 15L20 17C20 18.6569 21.3431 20 23 20H25Z" fill="#439CEF"/>
<path d="M45.5298 20.5522H47.9907L53.5278 32H51.0889L50.1733 30.0737H43.4863L42.6001 32H40.1538L45.5298 20.5522ZM49.2578 28.1621L46.7822 22.9619L44.3726 28.1621H49.2578ZM53.6201 27.7153C53.6201 27.0269 53.7495 26.4067 54.0083 25.855C54.2671 25.2983 54.6235 24.8247 55.0776 24.4341C55.5366 24.0386 56.0786 23.7358 56.7036 23.5259C57.3335 23.311 58.0146 23.2036 58.7471 23.2036C59.0596 23.2036 59.3672 23.2231 59.6699 23.2622C59.9775 23.3013 60.2705 23.355 60.5488 23.4233C60.832 23.4917 61.0957 23.5747 61.3398 23.6724C61.5889 23.7651 61.8086 23.8677 61.999 23.98V19.8491H64.167V32H61.999V31.187C61.8086 31.3188 61.584 31.4434 61.3252 31.5605C61.0664 31.6777 60.7881 31.7803 60.4902 31.8682C60.1924 31.9561 59.8823 32.0244 59.5601 32.0732C59.2427 32.127 58.9277 32.1538 58.6152 32.1538C57.8828 32.1538 57.209 32.0464 56.5938 31.8315C55.9834 31.6167 55.4585 31.314 55.019 30.9233C54.5796 30.5327 54.2354 30.0664 53.9863 29.5244C53.7422 28.9775 53.6201 28.3745 53.6201 27.7153ZM55.8979 27.7153C55.8979 28.062 55.9663 28.3892 56.103 28.6968C56.2446 29.0044 56.4448 29.2754 56.7036 29.5098C56.9673 29.7393 57.2822 29.9224 57.6484 30.0591C58.0195 30.1909 58.4346 30.2568 58.8936 30.2568C59.1865 30.2568 59.4795 30.23 59.7725 30.1763C60.0654 30.1177 60.3462 30.0371 60.6147 29.9346C60.8882 29.832 61.1421 29.7075 61.3765 29.561C61.6157 29.4146 61.8232 29.251 61.999 29.0703V26.0747C61.7793 25.8989 61.5474 25.75 61.3032 25.6279C61.0591 25.5059 60.8101 25.4058 60.5562 25.3276C60.3022 25.2495 60.0459 25.1934 59.7871 25.1592C59.5283 25.1201 59.2769 25.1006 59.0327 25.1006C58.5347 25.1006 58.0903 25.1689 57.6997 25.3057C57.314 25.4375 56.9868 25.6206 56.7183 25.855C56.4546 26.0894 56.252 26.3652 56.1104 26.6826C55.9688 27 55.8979 27.3442 55.8979 27.7153ZM67.4307 33.4648C67.7041 33.5625 67.9824 33.6431 68.2656 33.7065C68.5488 33.7749 68.8223 33.8286 69.0859 33.8677C69.3545 33.9116 69.6108 33.9409 69.855 33.9556C70.0991 33.9751 70.3164 33.9849 70.5068 33.9849C71.083 33.9849 71.5835 33.9141 72.0083 33.7725C72.438 33.6357 72.7944 33.4502 73.0776 33.2158C73.3657 32.9814 73.5806 32.708 73.7222 32.3955C73.8638 32.0879 73.9346 31.7607 73.9346 31.4141V31.0405C73.749 31.1675 73.5317 31.2896 73.2827 31.4067C73.0337 31.5239 72.7603 31.6265 72.4624 31.7144C72.1646 31.8022 71.8472 31.873 71.5103 31.9268C71.1782 31.9805 70.834 32.0073 70.4775 32.0073C69.7695 32.0073 69.1152 31.9023 68.5146 31.6924C67.9141 31.4775 67.394 31.1797 66.9546 30.7988C66.5151 30.4131 66.1709 29.9517 65.9219 29.4146C65.6777 28.8774 65.5557 28.2817 65.5557 27.6274C65.5557 26.9585 65.6851 26.353 65.9438 25.811C66.2026 25.2642 66.5591 24.7979 67.0132 24.4121C67.4722 24.0264 68.0142 23.7285 68.6392 23.5186C69.2642 23.3086 69.9429 23.2036 70.6753 23.2036C70.9878 23.2036 71.2979 23.2231 71.6055 23.2622C71.9131 23.3013 72.2061 23.355 72.4844 23.4233C72.7676 23.4917 73.0312 23.5747 73.2754 23.6724C73.5244 23.7651 73.7441 23.8677 73.9346 23.98V23.3574H76.1025V31.0112C76.1025 31.7974 75.9829 32.4932 75.7437 33.0986C75.5044 33.7041 75.1528 34.2119 74.689 34.6221C74.23 35.0371 73.6587 35.3496 72.9751 35.5596C72.2915 35.7744 71.5078 35.8818 70.624 35.8818C70.3066 35.8818 69.9771 35.8672 69.6353 35.8379C69.2935 35.8135 68.9492 35.7744 68.6025 35.7207C68.2607 35.6719 67.9214 35.6108 67.5845 35.5376C67.2524 35.4692 66.9326 35.3887 66.625 35.2959L67.4307 33.4648ZM67.8335 27.6055C67.8335 27.9521 67.9019 28.2793 68.0386 28.5869C68.1802 28.8896 68.3804 29.1558 68.6392 29.3853C68.8979 29.6099 69.2104 29.7881 69.5767 29.9199C69.9429 30.0469 70.3555 30.1104 70.8145 30.1104C71.1123 30.1104 71.4077 30.0835 71.7007 30.0298C71.9985 29.9712 72.2817 29.8906 72.5503 29.7881C72.8237 29.6855 73.0776 29.561 73.312 29.4146C73.5513 29.2681 73.7588 29.1045 73.9346 28.9238V26.0747C73.7148 25.8989 73.4829 25.75 73.2388 25.6279C72.9946 25.5059 72.7456 25.4058 72.4917 25.3276C72.2378 25.2495 71.9814 25.1934 71.7227 25.1592C71.4639 25.1201 71.2124 25.1006 70.9683 25.1006C70.4702 25.1006 70.0259 25.1665 69.6353 25.2983C69.2495 25.4302 68.9224 25.6108 68.6538 25.8403C68.3901 26.0649 68.1875 26.3286 68.0459 26.6313C67.9043 26.9341 67.8335 27.2588 67.8335 27.6055ZM77.4106 27.6494C77.4106 27.0635 77.5303 26.5044 77.7695 25.9722C78.0088 25.4351 78.353 24.9614 78.8022 24.5513C79.2515 24.1411 79.8008 23.814 80.4502 23.5698C81.1045 23.3257 81.8467 23.2036 82.6768 23.2036C83.502 23.2036 84.2441 23.3281 84.9033 23.5771C85.5674 23.8213 86.1289 24.1582 86.5879 24.5879C87.0518 25.0176 87.4058 25.5229 87.6499 26.104C87.8989 26.6851 88.0234 27.3076 88.0234 27.9717C88.0234 28.0547 88.021 28.145 88.0161 28.2427C88.0161 28.3354 88.0112 28.4209 88.0015 28.499H79.8276C79.9204 28.7578 80.0693 28.9946 80.2744 29.2095C80.4844 29.4243 80.7456 29.6099 81.0581 29.7661C81.3706 29.9224 81.7319 30.0444 82.1421 30.1323C82.5522 30.2153 83.0063 30.2568 83.5044 30.2568C84.0024 30.2568 84.498 30.2056 84.9912 30.103C85.4844 29.9956 85.9556 29.8613 86.4048 29.7002L87.1372 31.3555C86.854 31.4873 86.5659 31.6045 86.2729 31.707C85.9849 31.8047 85.6821 31.8877 85.3647 31.9561C85.0522 32.0195 84.7227 32.0684 84.376 32.1025C84.0342 32.1367 83.6729 32.1538 83.292 32.1538C82.3203 32.1538 81.4683 32.0366 80.7358 31.8022C80.0034 31.5679 79.3906 31.248 78.8975 30.8428C78.4043 30.4375 78.0332 29.9614 77.7842 29.4146C77.5352 28.8677 77.4106 28.2793 77.4106 27.6494ZM85.7236 26.8071C85.6455 26.5679 85.5234 26.3457 85.3574 26.1406C85.1963 25.9307 84.9937 25.75 84.7495 25.5986C84.5054 25.4424 84.2222 25.3203 83.8999 25.2324C83.5776 25.1445 83.2236 25.1006 82.8379 25.1006C82.4277 25.1006 82.0542 25.147 81.7173 25.2397C81.3804 25.3325 81.085 25.457 80.8311 25.6133C80.5771 25.7695 80.3647 25.9502 80.1938 26.1553C80.0278 26.3604 79.9058 26.5776 79.8276 26.8071H85.7236ZM90.9136 24.9834H88.8262V23.3574H90.9136V20.6694H93.0815V23.3574H95.1689V24.9834H93.0815V32H90.9136V24.9834Z" fill="#439CEF"/>
<path d="M104.892 23.8701L105.991 22.5298H99.1133V20.5522H110.312L103.903 28.6016L102.761 30.0225H109.953V32H98.5493L104.892 23.8701ZM110.609 27.6787C110.609 27.0586 110.734 26.4775 110.983 25.9355C111.237 25.3936 111.596 24.9199 112.06 24.5146C112.528 24.1094 113.092 23.7896 113.751 23.5552C114.416 23.3208 115.16 23.2036 115.985 23.2036C116.811 23.2036 117.553 23.3208 118.212 23.5552C118.876 23.7896 119.44 24.1094 119.904 24.5146C120.373 24.9199 120.731 25.3936 120.98 25.9355C121.234 26.4775 121.361 27.0586 121.361 27.6787C121.361 28.2988 121.234 28.8799 120.98 29.4219C120.731 29.9639 120.373 30.4375 119.904 30.8428C119.44 31.248 118.876 31.5679 118.212 31.8022C117.553 32.0366 116.811 32.1538 115.985 32.1538C115.16 32.1538 114.416 32.0366 113.751 31.8022C113.092 31.5679 112.528 31.248 112.06 30.8428C111.596 30.4375 111.237 29.9639 110.983 29.4219C110.734 28.8799 110.609 28.2988 110.609 27.6787ZM112.887 27.6787C112.887 28.0254 112.956 28.355 113.092 28.6675C113.234 28.9751 113.437 29.2485 113.7 29.4878C113.969 29.7222 114.293 29.9102 114.674 30.0518C115.06 30.1885 115.497 30.2568 115.985 30.2568C116.474 30.2568 116.908 30.1885 117.289 30.0518C117.675 29.9102 118 29.7222 118.263 29.4878C118.532 29.2485 118.734 28.9751 118.871 28.6675C119.013 28.355 119.083 28.0254 119.083 27.6787C119.083 27.332 119.013 27.0024 118.871 26.6899C118.734 26.3774 118.532 26.104 118.263 25.8696C118 25.6304 117.675 25.4424 117.289 25.3057C116.908 25.1641 116.474 25.0933 115.985 25.0933C115.497 25.0933 115.06 25.1641 114.674 25.3057C114.293 25.4424 113.969 25.6304 113.7 25.8696C113.437 26.104 113.234 26.3774 113.092 26.6899C112.956 27.0024 112.887 27.332 112.887 27.6787ZM122.801 23.3574H124.969V24.0898C125.545 23.7627 126.095 23.5332 126.617 23.4014C127.145 23.2695 127.66 23.2036 128.163 23.2036C128.822 23.2036 129.432 23.3013 129.994 23.4966C130.555 23.687 131.041 23.9727 131.451 24.3535C131.861 24.7344 132.181 25.2104 132.411 25.7817C132.645 26.3481 132.762 27.0049 132.762 27.752V32H130.602V28.1035C130.602 27.6299 130.533 27.2075 130.396 26.8364C130.265 26.4604 130.072 26.1455 129.818 25.8916C129.569 25.6328 129.264 25.4375 128.902 25.3057C128.546 25.1689 128.146 25.1006 127.701 25.1006C127.467 25.1006 127.225 25.125 126.976 25.1738C126.732 25.2227 126.49 25.2935 126.251 25.3862C126.017 25.4741 125.79 25.5864 125.57 25.7231C125.35 25.855 125.15 26.0063 124.969 26.1772V32H122.801V23.3574ZM134.268 27.6494C134.268 27.0635 134.388 26.5044 134.627 25.9722C134.866 25.4351 135.21 24.9614 135.66 24.5513C136.109 24.1411 136.658 23.814 137.308 23.5698C137.962 23.3257 138.704 23.2036 139.534 23.2036C140.359 23.2036 141.102 23.3281 141.761 23.5771C142.425 23.8213 142.986 24.1582 143.445 24.5879C143.909 25.0176 144.263 25.5229 144.507 26.104C144.756 26.6851 144.881 27.3076 144.881 27.9717C144.881 28.0547 144.878 28.145 144.874 28.2427C144.874 28.3354 144.869 28.4209 144.859 28.499H136.685C136.778 28.7578 136.927 28.9946 137.132 29.2095C137.342 29.4243 137.603 29.6099 137.916 29.7661C138.228 29.9224 138.589 30.0444 139 30.1323C139.41 30.2153 139.864 30.2568 140.362 30.2568C140.86 30.2568 141.355 30.2056 141.849 30.103C142.342 29.9956 142.813 29.8613 143.262 29.7002L143.995 31.3555C143.711 31.4873 143.423 31.6045 143.13 31.707C142.842 31.8047 142.54 31.8877 142.222 31.9561C141.91 32.0195 141.58 32.0684 141.233 32.1025C140.892 32.1367 140.53 32.1538 140.149 32.1538C139.178 32.1538 138.326 32.0366 137.593 31.8022C136.861 31.5679 136.248 31.248 135.755 30.8428C135.262 30.4375 134.891 29.9614 134.642 29.4146C134.393 28.8677 134.268 28.2793 134.268 27.6494ZM142.581 26.8071C142.503 26.5679 142.381 26.3457 142.215 26.1406C142.054 25.9307 141.851 25.75 141.607 25.5986C141.363 25.4424 141.08 25.3203 140.757 25.2324C140.435 25.1445 140.081 25.1006 139.695 25.1006C139.285 25.1006 138.912 25.147 138.575 25.2397C138.238 25.3325 137.942 25.457 137.688 25.6133C137.435 25.7695 137.222 25.9502 137.051 26.1553C136.885 26.3604 136.763 26.5776 136.685 26.8071H142.581Z" fill="black"/>
</svg>
