<svg width="13" height="15" viewBox="0 0 13 15" fill="none" xmlns="http://www.w3.org/2000/svg">
<path d="M11.375 3H9.75C9.75 1.3425 8.29563 0 6.5 0C4.70437 0 3.25 1.3425 3.25 3H1.625C0.73125 3 0 3.675 0 4.5V13.5C0 14.325 0.73125 15 1.625 15H11.375C12.2688 15 13 14.325 13 13.5V4.5C13 3.675 12.2688 3 11.375 3ZM6.5 1.5C7.39375 1.5 8.125 2.175 8.125 3H4.875C4.875 2.175 5.60625 1.5 6.5 1.5ZM11.375 13.5H1.625V4.5H3.25V6C3.25 6.4125 3.61562 6.75 4.0625 6.75C4.50938 6.75 4.875 6.4125 4.875 6V4.5H8.125V6C8.125 6.4125 8.49062 6.75 8.9375 6.75C9.38438 6.75 9.75 6.4125 9.75 6V4.5H11.375V13.5Z" fill="#fff"/>
</svg>
